<svg height="479pt" viewBox="0 -44 479.97011 479" width="479pt" xmlns="http://www.w3.org/2000/svg"><path d="m354.457031 381.59375-329.832031-158.28125c-14.582031-7.039062-20.738281-24.539062-13.777344-39.160156l75.664063-158.96875c3.324219-7.019532 9.308593-12.421875 16.628906-15.019532 7.316406-2.59375 15.371094-2.167968 22.371094 1.1875l329.832031 158.28125c14.585938 7.039063 20.742188 24.539063 13.777344 39.160157l-75.664063 158.96875c-3.324219 7.019531-9.304687 12.421875-16.625 15.019531-7.320312 2.59375-15.371093 2.167969-22.375-1.1875zm0 0" fill="#22689c"/><path d="m63.984375 72.472656h352c17.671875 0 32 14.328125 32 32v176c0 17.671875-14.328125 32-32 32h-352c-17.671875 0-32-14.328125-32-32v-176c0-17.671875 14.328125-32 32-32zm0 0" fill="#4398d1"/><path d="m415.984375 72.472656-240 240h240c17.671875 0 32-14.328125 32-32v-176c0-17.671875-14.328125-32-32-32zm0 0" fill="#3e8dc2"/><path d="m447.984375 184.472656h-296v-112h-16v112h-104v16h104v112h16v-112h296zm0 0" fill="#c74a44"/><path d="m159.296875 196.808594 45.488281-18.257813c14.515625-5.753906 23.296875-20.601562 21.351563-36.09375-1.945313-15.492187-14.125-27.707031-29.613281-29.695312-15.488282-1.988281-30.359376 6.753906-36.15625 21.253906l-15.238282 38.257813-15.199218-38.257813c-5.828126-14.425781-20.660157-23.097656-36.089844-21.09375-15.429688 2-27.5625 14.164063-29.519532 29.601563-1.957031 15.433593 6.757813 30.242187 21.199219 36.027343l45.449219 18.257813-2.167969 2.175781c-15.007812 15.167969-35.476562 23.675781-56.816406 23.609375v16c25.570313.058594 50.09375-10.140625 68.082031-28.3125l5.03125-5.054688 5.046875 5.0625c17.984375 18.167969 42.5 28.363282 68.066407 28.304688v-16c-21.3125.046875-41.75-8.457031-56.738282-23.609375zm15.886719-56.863282c3.117187-7.664062 11.011718-12.261718 19.214844-11.183593 8.203124 1.074219 14.644531 7.550781 15.675781 15.761719 1.03125 8.207031-3.609375 16.078124-11.289063 19.148437l-39.34375 15.800781zm-83.765625 23.726563c-7.753907-3.035156-12.46875-10.9375-11.457031-19.203125 1.011718-8.265625 7.496093-14.792969 15.753906-15.867188 8.257812-1.074218 16.191406 3.578126 19.285156 11.3125l15.761719 39.558594zm0 0" fill="#e3584b"/><g fill="#22689c"><path d="m383.984375 104.472656h16v32h-16zm0 0"/><path d="m351.984375 104.472656h16v32h-16zm0 0"/><path d="m319.984375 104.472656h16v32h-16zm0 0"/><path d="m287.984375 104.472656h16v32h-16zm0 0"/><path d="m383.984375 256.472656h16v16h-16zm0 0"/><path d="m351.984375 256.472656h16v16h-16zm0 0"/><path d="m319.984375 256.472656h16v16h-16zm0 0"/><path d="m287.984375 256.472656h16v16h-16zm0 0"/></g><path d="m383.984375 104.472656h16v32h-16zm0 0"/><path d="m351.984375 104.472656h16v32h-16zm0 0"/><path d="m319.984375 104.472656h16v32h-16zm0 0"/><path d="m287.984375 104.472656h16v32h-16zm0 0"/><path d="m383.984375 256.472656h16v16h-16zm0 0"/><path d="m351.984375 256.472656h16v16h-16zm0 0"/><path d="m319.984375 256.472656h16v16h-16zm0 0"/><path d="m287.984375 256.472656h16v16h-16zm0 0"/><path d="m23.984375 231.871094v48.601562c.027344 22.082032 17.921875 39.972656 40 40h144.625l142.398437 68.335938c8.921876 4.273437 19.175782 4.820312 28.5 1.515625 9.324219-3.300781 16.949219-10.179688 21.1875-19.117188l24.738282-52c17.882812-4.34375 30.492187-20.332031 30.550781-38.734375v-25.472656l20.359375-42.765625c8.839844-18.601563 1.007812-40.847656-17.535156-49.808594l-2.824219-1.351562v-56.601563c-.027344-22.082031-17.917969-39.972656-40-40h-161.289063l-125.71875-60.335937c-8.917968-4.273438-19.175781-4.820313-28.496093-1.515625-9.324219 3.300781-16.949219 10.179687-21.191407 19.117187l-20.59375 43.269531c-19.816406 2.613282-34.648437 19.476563-34.710937 39.464844v33.464844l-20.359375 42.773438c-8.835938 18.601562-1.003906 40.847656 17.535156 49.808593zm432-52.382813c7.714844 6.21875 10.15625 16.914063 5.90625 25.863281l-5.90625 12.410157zm-69.757813 184.800781c-2.410156 5.101563-6.75 9.03125-12.0625 10.917969-5.316406 1.890625-11.164062 1.582031-16.25-.855469l-112.328124-53.878906h161.519531zm53.757813-83.816406c0 13.253906-10.746094 24-24 24h-264v-92.511718c17.792969 17.117187 41.535156 26.664062 66.226563 26.632812v-16c-20.539063.023438-40.292969-7.902344-55.113282-22.121094h276.886719zm-280.542969-100.96875 15.742188-39.558594c3.117187-7.664062 11.011718-12.261718 19.214844-11.183593 8.203124 1.074219 14.644531 7.550781 15.675781 15.761719 1.03125 8.207031-3.609375 16.078124-11.289063 19.148437zm256.542969-99.03125c13.253906 0 24 10.746094 24 24v80h-249.984375l14.753906-5.921875c14.515625-5.753906 23.296875-20.601562 21.351563-36.09375-1.945313-15.492187-14.128907-27.707031-29.613281-29.695312-15.488282-1.988281-30.359376 6.753906-36.15625 21.253906l-8.351563 20.96875v-74.511719zm-322.238281-51.847656c2.40625-5.101562 6.746094-9.03125 12.0625-10.921875 5.3125-1.886719 11.160156-1.578125 16.25.859375l95.671875 45.910156h-141.050781zm-53.761719 75.847656c0-13.253906 10.746094-24 24-24h72v68.929688l-6.128906-15.386719c-5.824219-14.425781-20.660157-23.097656-36.089844-21.09375-15.429687 2-27.5625 14.164063-29.515625 29.601563-1.957031 15.433593 6.757812 30.242187 21.199219 36.027343l14.742187 5.921875h-60.207031zm90.777344 75.03125-39.34375-15.832031c-7.753907-3.035156-12.46875-10.9375-11.457031-19.203125 1.011718-8.265625 7.496093-14.792969 15.753906-15.867188 8.257812-1.074218 16.191406 3.578126 19.285156 11.3125zm-90.777344 20.96875h87.113281c-14.824218 14.21875-34.574218 22.144532-55.113281 22.121094v16c23.648437.023438 46.457031-8.746094 64-24.601562v90.480468h-72c-13.253906 0-24-10.746094-24-24zm-21.902344-12.878906 5.902344-12.417969v38.28125c-7.714844-6.21875-10.15625-16.914062-5.902344-25.863281zm0 0"/></svg>