<svg height="495pt" viewBox="-39 0 495 495.98406" width="495pt" xmlns="http://www.w3.org/2000/svg"><path d="m280.492188 295.976562c-4.398438 0-8.398438-1.761718-11.28125-4.71875-2.957032-2.882812-4.71875-6.882812-4.71875-11.28125v-104c0-3.121093-.878907-6-2.480469-8.480468-9.28125-.238282-18-.640625-26.398438-1.039063-2 2.640625-3.121093 6-3.121093 9.519531v32c0 8.800782-7.199219 16-16 16-4.398438 0-8.398438-1.761718-11.28125-4.71875-2.957032-2.882812-4.71875-6.882812-4.71875-11.28125v-43.839843c-16.71875-1.441407-32.320313-2.960938-48-4.5625-15.441407-1.519531-30.878907-3.039063-47.679688-4.316407-21.679688-1.683593-45.441406-2.882812-73.839844-3.203124 16.398438 22.5625 25.519532 49.921874 25.519532 78.402343v177.519531h240v-128c0 8.800782-7.199219 16-16 16zm0 0" fill="#f0bc5e"/><path d="m351.226562 129.183594-46.734374-8.757813v-16.449219c0-13.234374-10.769532-24-24-24h-.808594c-3.617188-17.738281-19-31.242187-37.609375-31.96875-8.496094-14.769531-24.253907-24.03125-41.582031-24.03125-7.992188 0-15.664063 1.933594-22.558594 5.632813-8.65625-8.425781-20.441406-13.632813-33.441406-13.632813-3.839844 0-7.558594.503907-11.144532 1.359376-11.246094-13.558594-28.96875-19.9375-46.816406-16.351563-18.382812 3.726563-33.261719 18.617187-37.03125 37.070313-.726562 3.578124-1.0625 7.160156-1.007812 10.738281-8.25 1.679687-15.847657 5.960937-21.601563 12.277343-7.558594 8.320313-11.285156 19.546876-10.214844 30.808594.71875 7.503906 3.671875 14.386719 8.160157 20.105469h-24.34375v19.75l2.878906 2.402344c28.671875 23.878906 45.121094 59 45.121094 96.328125v178.816406l.40625 1.230469c5.105468 15.3125 14.625 28.175781 26.839843 37.472656h-3.246093c-22.054688 0-40 17.945313-40 40v8h288v-8c0-22.054687-17.945313-40-40-40h-3.25c12.210937-9.296875 21.738281-22.160156 26.84375-37.472656l.40625-1.238281v-1.746094l46.742187-8.757813c37.808594-7.089843 65.257813-40.160156 65.257813-78.625v-112.335937c0-38.464844-27.449219-71.535156-65.265626-78.625zm-46.734374 150.792968v-94.449218l34.945312 6.550781c7.558594 1.417969 13.054688 8.042969 13.054688 15.730469v112.328125c0 7.695312-5.496094 14.3125-13.046876 15.734375l-34.953124 6.554687zm-271.886719-189.617187c-.65625-6.878906 1.519531-13.464844 6.125-18.519531 4.449219-4.902344 10.761719-7.75 17.371093-7.863282l11.070313.359376-2.023437-9.878907c-.886719-4.320312-.871094-8.769531.03125-13.199219 2.496093-12.234374 12.351562-22.121093 24.527343-24.578124 10.34375-2.128907 20.59375.792968 28.050781 7.457031-12.816406 8.625-21.265624 23.253906-21.265624 39.839843h16c0-17.648437 14.351562-32 32-32 17.648437 0 32 14.351563 32 32h16c0-7.601562-1.824219-14.761718-4.976563-21.152343 4.054687-1.816407 8.425781-2.847657 12.976563-2.847657 12.839843 0 24.398437 7.640626 29.441406 19.464844l2.292968 5.375 7.25-.71875c.335938-.050781.664063-.121094 1.015626-.121094 13.230468 0 24 10.765626 24 24v8h16c4.40625 0 8 3.582032 8 8v176c0 4.414063-3.59375 8-8 8s-8-3.585937-8-8v-104c0-13.234374-10.769532-24-24-24-13.230469 0-24 10.765626-24 24v32c0 4.414063-3.59375 8-8 8s-8-3.585937-8-8v-72c0-13.234374-10.769532-24-24-24h-126.625c-13.007813 0-24.101563-9.503906-25.261719-21.617187zm-12.082031 37.617187h163.96875c4.40625 0 8 3.582032 8 8v72c0 13.230469 10.769531 24 24 24 13.230468 0 24-10.769531 24-24v-32c0-4.417968 3.59375-8 8-8s8 3.582032 8 8v104c0 13.230469 10.769531 24 24 24 2.816406 0 5.488281-.578124 8-1.472656v97.472656h-224v-169.511718c0-39-15.921876-75.855469-43.96875-102.488282zm259.96875 336c10.433593 0 19.328124 6.6875 22.632812 16h-253.265625c3.304687-9.3125 12.199219-16 22.632813-16zm-157.398438-16c-22.914062 0-43.53125-12.496093-54.347656-32h215.496094c-10.8125 19.503907-31.429688 32-54.34375 32zm277.398438-127.832031c0 30.777344-21.960938 57.222657-52.207032 62.902344l-43.792968 8.210937v-32.5625l37.894531-7.101562c15.128906-2.839844 26.105469-16.074219 26.105469-31.449219v-112.335937c0-15.382813-10.976563-28.609375-26.105469-31.457032l-37.894531-7.09375v-32.5625l43.792968 8.207032c30.246094 5.683594 52.207032 32.136718 52.207032 62.90625zm0 0"/><path d="m96.492188 159.976562h16v224h-16zm0 0"/><path d="m144.492188 159.976562h16v224h-16zm0 0"/><path d="m192.492188 247.976562h16v136h-16zm0 0"/><path d="m240.492188 319.976562h16v64h-16zm0 0"/></svg>