<?xml version="1.0" encoding="iso-8859-1"?>
<!-- Generator: Adobe Illustrator 19.0.0, SVG Export Plug-In . SVG Version: 6.00 Build 0)  -->
<svg version="1.1" id="Layer_1" xmlns="http://www.w3.org/2000/svg" xmlns:xlink="http://www.w3.org/1999/xlink" x="0px" y="0px"
	 viewBox="0 0 512 512" style="enable-background:new 0 0 512 512;" xml:space="preserve">
<g>
	<g>
		<g>
			<circle cx="426.667" cy="213.333" r="21.333"/>
			<path d="M426.667,362.668c23.521,0,42.667-19.135,42.667-42.667c23.521,0,42.667-19.135,42.667-42.667v-69.854
				c0-33.135-21.313-61.844-53.021-71.458L172.104,49.095c-14.287-4.325-29.21-6.529-44.12-6.427
				c-22.835,0.156-45.637,5.56-66.067,15.781L20.479,79.168C7.854,85.481,0,98.179,0,112.304c0,20.417,16.625,37.031,37.042,37.031
				h69.625c56.75,0,111,27.125,145.083,72.552c6.055,8.077,12.783,15.582,19.98,22.585l-123.647,76.082
				c-22.87,14.072-37.573,37.279-40.74,63.448H42.667C19.146,384.002,0,403.137,0,426.668v32c0,5.896,4.771,10.667,10.667,10.667
				h490.667c5.896,0,10.667-4.771,10.667-10.667v-32c0-23.531-19.146-42.667-42.667-42.667h-64v-21.333H426.667z M268.813,209.064
				c-38.104-50.76-98.708-81.063-162.146-81.063H37.042c-8.667,0-15.708-7.042-15.708-15.698c0-5.99,3.333-11.375,8.688-14.052
				l41.438-20.719c17.708-8.854,37.521-13.531,57.313-13.531c12.583,0,25.083,1.854,37.167,5.51l286.854,86.927
				c22.667,6.865,37.875,27.375,37.875,51.042v69.854c0,11.76-9.563,21.333-21.333,21.333c-6.125,0-12.271-0.802-18.229-2.385
				l-87.875-23.438C325.667,262.825,292.125,240.179,268.813,209.064z M469.333,405.335c11.771,0,21.333,9.573,21.333,21.333v21.333
				H21.333v-21.333c0-11.76,9.563-21.333,21.333-21.333H469.333z M277.333,384.002c0-11.76,9.563-21.333,21.333-21.333h64v21.333
				H277.333z M394.667,341.335h-21.333h-74.667c-23.521,0-42.667,19.135-42.667,42.667H128.854
				c3.021-18.677,13.917-35.135,30.396-45.281l129.393-79.617c20.458,15.799,43.934,27.642,69.086,34.346l87.875,23.448
				c0.79,0.21,1.602,0.284,2.396,0.473v2.632c0,11.76-9.563,21.333-21.333,21.333H394.667z"/>
		</g>
	</g>
</g>
<g>
</g>
<g>
</g>
<g>
</g>
<g>
</g>
<g>
</g>
<g>
</g>
<g>
</g>
<g>
</g>
<g>
</g>
<g>
</g>
<g>
</g>
<g>
</g>
<g>
</g>
<g>
</g>
<g>
</g>
</svg>
