<?xml version="1.0" encoding="iso-8859-1"?>
<!-- Generator: Adobe Illustrator 19.0.0, SVG Export Plug-In . SVG Version: 6.00 Build 0)  -->
<svg version="1.1" id="Capa_1" xmlns="http://www.w3.org/2000/svg" xmlns:xlink="http://www.w3.org/1999/xlink" x="0px" y="0px"
	 viewBox="0 0 512.001 512.001" style="enable-background:new 0 0 512.001 512.001;" xml:space="preserve">
<path style="fill:#607D8B;" d="M467.414,295.796L228.267,192.863c-2.245-0.995-4.77-1.162-7.125-0.469
	c-43.051,12.203-78.933,42.667-155.733,175.595c-2.946,5.102-1.198,11.625,3.904,14.571c1.628,0.94,3.475,1.433,5.354,1.429h170.667
	c2.831,0.005,5.548-1.115,7.552-3.115l39.531-39.552h123.584c36.267,0,57.877-13.355,57.877-35.733
	C473.873,301.326,471.331,297.475,467.414,295.796z"/>
<path style="fill:#CFD8DC;" d="M511.681,456.073l-13.248-53.013c-5.934-23.75-27.275-40.411-51.755-40.405H65.323
	c-24.48-0.005-45.821,16.655-51.755,40.405L0.321,456.073c-1.426,5.716,2.052,11.505,7.768,12.931
	c0.843,0.21,1.709,0.317,2.578,0.317h490.667c5.891-0.002,10.665-4.779,10.664-10.67
	C511.997,457.783,511.891,456.917,511.681,456.073z"/>
<path style="fill:#455A64;" d="M482.987,147.892c-12.32-12.293-27.662-21.123-44.48-25.6L156.118,46.921
	c-30.323-8.034-62.546-4.577-90.475,9.707L18.539,87.305C7.125,92.939-0.073,104.593,0.001,117.321l0,0
	c0.14,15.921,11.388,29.578,26.987,32.768l145.067,13.269c15.882,3.968,30.029,13.026,40.277,25.792l48.555,60.693
	c13.696,17.068,32.789,28.969,54.144,33.749l145.856,32.427c22.647,5.031,45.084-9.25,50.115-31.896c0.664-2.99,0.999-6.043,1-9.106
	v-57.109C512.065,191.632,501.618,166.421,482.987,147.892z"/>
<circle style="fill:#FAFAFA;" cx="426.667" cy="213.321" r="42.667"/>
<path d="M470.102,317.023c-3.1,0-6.191-0.344-9.216-1.024L315.03,283.572c-21.355-4.78-40.448-16.682-54.144-33.749l-48.555-60.672
	c-10.226-12.75-24.341-21.807-40.192-25.792L27.073,150.089c-15.633-3.155-26.923-16.821-27.072-32.768l0,0
	c-0.016-12.675,7.173-24.257,18.539-29.867l47.104-30.827c27.932-14.272,60.151-17.729,90.475-9.707l282.389,75.307
	c43.336,11.574,73.486,50.825,73.493,95.68v57.109c-0.012,23.156-18.743,41.944-41.899,42.027V317.023z M123.435,63.988
	c-16.385,0.02-32.544,3.832-47.211,11.136l-47.125,30.677c-4.628,1.979-7.667,6.487-7.765,11.52l0,0
	c-0.007,5.584,3.796,10.453,9.216,11.797l145.067,13.269c21.001,4.902,39.768,16.665,53.333,33.429l48.555,60.693
	c10.647,13.278,25.5,22.534,42.112,26.24l145.856,32.427c11.126,2.51,22.179-4.475,24.689-15.601
	c0.338-1.496,0.507-3.026,0.506-4.56v-57.109c-0.015-35.151-23.641-65.909-57.6-74.987L150.635,67.551
	C141.763,65.178,132.619,63.98,123.435,63.988z"/>
<path d="M426.667,255.988c-23.564,0-42.667-19.103-42.667-42.667s19.102-42.667,42.667-42.667s42.667,19.103,42.667,42.667
	S450.231,255.988,426.667,255.988z M426.667,191.988c-11.782,0-21.333,9.551-21.333,21.333c0,11.782,9.551,21.333,21.333,21.333
	s21.333-9.551,21.333-21.333C448.001,201.539,438.449,191.988,426.667,191.988z"/>
<path d="M74.667,383.988c-5.891,0-10.667-4.776-10.666-10.667c0-1.872,0.493-3.712,1.429-5.333
	c76.8-132.885,112.597-163.392,155.733-175.595c5.673-1.608,11.576,1.687,13.184,7.36s-1.687,11.576-7.36,13.184
	c-36.715,10.389-70.4,39.872-142.933,165.739C82.117,382.015,78.527,384.046,74.667,383.988z"/>
<path d="M245.334,383.988c-5.891,0.011-10.675-4.757-10.686-10.648c-0.005-2.84,1.123-5.565,3.134-7.571l42.667-42.667
	c2.004-1.999,4.721-3.12,7.552-3.115h128c18.197,0,36.544-4.459,36.544-14.4c0-5.891,4.776-10.667,10.667-10.667
	c5.891,0,10.667,4.776,10.667,10.667c0,22.379-21.611,35.733-57.877,35.733H292.417l-39.552,39.552
	C250.866,382.867,248.157,383.987,245.334,383.988z"/>
<path d="M501.334,469.321H10.667c-5.891-0.002-10.665-4.779-10.664-10.67c0-0.869,0.107-1.735,0.317-2.578l13.248-53.013l0,0
	c5.934-23.75,27.275-40.411,51.755-40.405h381.355c24.48-0.005,45.821,16.655,51.755,40.405l13.248,53.013
	c1.426,5.716-2.052,11.505-7.768,12.931C503.069,469.215,502.203,469.321,501.334,469.321z M24.342,447.988h463.317l-9.941-39.765
	c-3.563-14.242-16.359-24.233-31.04-24.235H65.323c-14.681,0.002-27.477,9.993-31.04,24.235L24.342,447.988z"/>
<path d="M480.001,426.655h-448c-5.891,0-10.667-4.776-10.667-10.667c0-5.891,4.776-10.667,10.667-10.667h448
	c5.891,0,10.667,4.776,10.667,10.667C490.667,421.879,485.892,426.655,480.001,426.655z"/>
<g>
</g>
<g>
</g>
<g>
</g>
<g>
</g>
<g>
</g>
<g>
</g>
<g>
</g>
<g>
</g>
<g>
</g>
<g>
</g>
<g>
</g>
<g>
</g>
<g>
</g>
<g>
</g>
<g>
</g>
</svg>
